HIERARCHY
ROOT root
{
	OFFSET 0.000000 0.000000 0.000000
	CHANNELS 6 Xposition Yposition Zposition Zrotation Yrotation Xrotation
	JOINT lhip
	{
		OFFSET 0.058581 -0.082280 -0.017664
		CHANNELS 3 Zrotation Yrotation Xrotation
		JOINT lknee
		{
			OFFSET 0.043451 -0.386469 0.008037
			CHANNELS 3 Zrotation Yrotation Xrotation
			JOINT lankle
			{
				OFFSET -0.014790 -0.426874 -0.037428
				CHANNELS 3 Zrotation Yrotation Xrotation
				JOINT ltoe
				{
					OFFSET 0.041054 -0.060286 0.122042
					CHANNELS 3 Zrotation Yrotation Xrotation
					End Site
					{
						OFFSET 0.000000 0.000000 0.000000
					}
				}
			}
		}
	}
	JOINT rhip
	{
		OFFSET -0.060310 -0.090513 -0.013543
		CHANNELS 3 Zrotation Yrotation Xrotation
		JOINT rknee
		{
			OFFSET -0.043257 -0.383688 -0.004843
			CHANNELS 3 Zrotation Yrotation Xrotation
			JOINT rankle
			{
				OFFSET 0.019056 -0.420046 -0.034562
				CHANNELS 3 Zrotation Yrotation Xrotation
				JOINT rtoe
				{
					OFFSET -0.034840 -0.062106 0.130323
					CHANNELS 3 Zrotation Yrotation Xrotation
					End Site
					{
						OFFSET 0.000000 0.000000 0.000000
					}
				}
			}
		}
	}
	JOINT lowerback
	{
		OFFSET 0.004439 0.124404 -0.038385
		CHANNELS 3 Zrotation Yrotation Xrotation
		JOINT upperback
		{
			OFFSET 0.004488 0.137956 0.026820
			CHANNELS 3 Zrotation Yrotation Xrotation
			JOINT chest
			{
				OFFSET -0.002265 0.056032 0.002855
				CHANNELS 3 Zrotation Yrotation Xrotation
				JOINT lowerneck
				{
					OFFSET -0.013390 0.211636 -0.033468
					CHANNELS 3 Zrotation Yrotation Xrotation
					JOINT upperneck
					{
						OFFSET 0.010113 0.088937 0.050410
						CHANNELS 3 Zrotation Yrotation Xrotation
						End Site
						{
							OFFSET 0.000000 0.000000 0.000000
						}
					}
				}
				JOINT lclavicle
				{
					OFFSET 0.071702 0.114000 -0.018898
					CHANNELS 3 Zrotation Yrotation Xrotation
					JOINT lshoulder
					{
						OFFSET 0.122921 0.045205 -0.019046
						CHANNELS 3 Zrotation Yrotation Xrotation
						JOINT lelbow
						{
							OFFSET 0.255332 -0.015649 -0.022946
							CHANNELS 3 Zrotation Yrotation Xrotation
							JOINT lwrist
							{
								OFFSET 0.265709 0.012698 -0.007375
								CHANNELS 3 Zrotation Yrotation Xrotation
								End Site
								{
									OFFSET 0.000000 0.000000 0.000000
								}
							}
						}
					}
				}
				JOINT rclavicle
				{
					OFFSET -0.082954 0.112472 -0.023707
					CHANNELS 3 Zrotation Yrotation Xrotation
					JOINT rshoulder
					{
						OFFSET -0.113228 0.046853 -0.008472
						CHANNELS 3 Zrotation Yrotation Xrotation
						JOINT relbow
						{
							OFFSET -0.260127 -0.014369 -0.031269
							CHANNELS 3 Zrotation Yrotation Xrotation
							JOINT rwrist
							{
								OFFSET -0.269108 0.006794 -0.006027
								CHANNELS 3 Zrotation Yrotation Xrotation
								End Site
								{
									OFFSET 0.000000 0.000000 0.000000
								}
							}
						}
					}
				}
			}
		}
	}
}
MOTION
Frames: 11
Frame Time: 0.033333
1.153958 0.756322 0.986152 -102.251647 -0.055347 87.342775 0.729362 0.221337 -2.738349 -2.938324 -0.998060 14.917039 4.467586 15.063284 -14.622390 0.000000 -0.000000 0.000000 0.831586 2.653102 -6.483884 -0.300385 4.615327 18.068938 0.670321 -6.427280 -13.138439 0.000000 -0.000000 0.000000 -1.407615 0.245730 6.694178 1.146616 -3.244995 4.846549 -1.228764 -0.061870 -3.668730 1.392743 2.878435 -6.889285 1.879403 1.129589 8.334051 -30.398403 -6.950181 0.166426 -51.220287 -7.726272 14.418294 4.977550 -24.496593 -1.160293 -3.086958 -7.516002 3.967931 30.442803 9.310527 3.378786 53.201453 3.310997 15.778930 -12.857785 29.426132 -4.156042 2.401078 7.806853 4.425448 
1.154835 0.756468 0.986417 -102.379823 -0.134175 87.553501 0.655638 0.233480 -3.095721 -2.941220 -1.037040 15.085021 4.607191 15.209520 -14.572448 0.000000 -0.000000 0.000000 0.729608 2.664187 -6.852776 -0.176950 4.695806 18.186501 0.645617 -6.370053 -13.103770 0.000000 -0.000000 0.000000 -1.593952 0.315573 6.521127 1.314173 -3.631260 5.295235 -1.251207 -0.039375 -3.788586 1.313218 2.870142 -7.246341 1.940243 1.381916 7.799701 -30.086573 -6.906676 -0.019642 -50.997124 -7.975583 14.080688 6.021078 -24.432466 -2.843302 -3.212696 -7.181777 3.886860 30.178059 9.198155 2.870665 52.883675 3.323673 15.415999 -14.450857 30.420155 -5.937672 2.710075 7.584914 3.873786 
1.155842 0.756699 0.986358 -102.596765 -0.234687 87.791373 0.520523 0.315404 -3.214094 -2.840847 -0.994351 14.703645 4.680043 15.248790 -14.457028 0.000000 -0.000000 0.000000 0.725740 2.862848 -7.326574 -0.238083 4.800341 18.400445 0.573280 -6.491810 -13.189509 0.000000 -0.000000 0.000000 -1.622601 0.180725 7.183088 1.306770 -3.391468 4.545460 -1.216714 -0.209156 -3.846817 1.264704 2.859716 -7.458423 2.036004 1.591901 7.698986 -29.864419 -6.772143 -0.367675 -50.586703 -7.737206 13.870941 6.769722 -24.186083 -3.684566 -2.762644 -7.373089 3.531379 29.877545 8.664661 2.632885 52.469820 3.451804 14.820114 -15.784250 31.372270 -7.401749 1.999328 7.843666 3.443241 
1.157052 0.757332 0.986442 -102.571730 -0.241588 88.144606 0.636654 0.492028 -3.568199 -2.934411 -1.211841 14.476566 4.640055 15.168335 -14.312979 0.000000 -0.000000 0.000000 0.729061 2.808085 -7.759284 -0.158569 4.778339 18.264958 0.471812 -6.475271 -12.991814 0.000000 -0.000000 0.000000 -1.632224 0.027693 7.245747 1.339084 -3.658878 4.665599 -1.254443 -0.066717 -3.896754 1.163602 2.967615 -7.836822 2.061615 1.678150 7.074264 -29.374375 -6.881685 -0.512475 -49.896885 -7.897108 13.570701 7.520229 -23.503038 -4.727873 -2.668754 -7.039884 3.345224 29.400044 8.570271 2.388354 51.811196 3.190377 13.948988 -17.194534 30.491191 -9.353051 1.886309 7.475682 2.534199 
1.157899 0.757865 0.986747 -102.400793 -0.305023 88.463835 0.668650 0.526539 -3.720992 -2.928546 -1.295010 13.933443 4.526083 14.986959 -14.253095 0.000000 -0.000000 0.000000 0.677017 2.662603 -8.082935 -0.163806 4.710116 18.108309 0.531646 -6.443923 -12.889747 0.000000 -0.000000 0.000000 -1.703410 0.054786 7.074068 1.401482 -3.884909 4.801524 -1.315475 -0.057218 -3.873139 1.127920 3.243311 -8.042099 2.134812 1.610183 6.892975 -29.202462 -7.024267 -0.587057 -49.258820 -7.911889 13.228886 7.806267 -23.136839 -5.475318 -2.749964 -7.003622 3.730388 29.454111 8.614253 2.490933 51.002169 3.172147 13.297733 -18.216785 29.819600 -10.381607 2.121240 7.465398 3.166302 
1.158726 0.758738 0.987819 -101.894951 -0.348169 88.882283 0.745945 0.661014 -3.994644 -2.909301 -1.734410 13.318659 4.377487 14.672765 -13.840456 0.000000 -0.000000 0.000000 0.700320 2.247612 -8.219425 -0.263079 4.647759 17.446317 0.606157 -6.566321 -12.620858 0.000000 -0.000000 0.000000 -1.813304 0.176282 7.028273 1.542777 -4.210587 5.019592 -1.289949 -0.129667 -3.914925 0.986586 3.127285 -8.422186 2.131472 1.438322 6.230198 -28.755146 -7.101599 -0.871102 -48.572096 -8.063756 13.326267 7.820001 -22.439537 -5.687673 -2.124148 -6.820006 3.970757 29.303263 8.247329 2.124351 49.982371 3.043599 12.563259 -18.768084 28.616195 -11.643244 1.590688 6.667068 3.142738 
1.160921 0.760219 0.989229 -101.002458 -0.250384 89.461771 1.042272 0.510482 -5.012229 -2.818523 -1.715010 13.514039 4.109221 14.172389 -13.617318 0.000000 -0.000000 0.000000 0.967188 1.807097 -8.310609 -0.471570 4.471888 16.271085 0.579995 -6.756787 -12.235454 0.000000 -0.000000 0.000000 -1.845839 0.371168 7.561501 1.708513 -4.614442 4.498715 -1.081062 -0.346482 -3.901408 0.643545 3.209777 -8.888348 2.390521 1.360967 5.496982 -28.116598 -7.083092 -1.157947 -48.160500 -8.165150 13.233828 7.686280 -21.686521 -5.905260 -2.241611 -7.638788 4.016035 29.008705 8.036109 1.781446 49.077765 2.732469 11.599615 -19.037012 26.808443 -12.641183 2.608686 7.586368 3.236773 
1.162289 0.761975 0.990614 -100.181657 -0.231037 89.792049 1.338535 0.536059 -5.942663 -3.000621 -1.753863 14.216182 3.790476 13.769716 -13.674892 0.000000 -0.000000 0.000000 1.099079 1.341001 -7.791608 -0.595622 4.263591 14.567965 0.558002 -6.962414 -11.832752 0.000000 -0.000000 0.000000 -1.922302 0.616292 7.912932 1.707540 -4.873249 4.611717 -0.862422 -0.468344 -3.799683 0.454381 3.139321 -9.377091 2.578784 0.974312 4.524447 -27.459904 -7.605279 -0.974313 -47.734470 -8.465381 12.934453 7.491308 -20.551158 -6.657945 -1.711394 -7.676589 3.376169 28.453506 8.256453 1.998505 48.709680 2.441127 10.773793 -19.251350 24.715363 -13.842231 1.733130 6.978072 2.254554 
1.164047 0.763638 0.991020 -99.049406 -0.151177 90.196088 1.790349 0.370999 -7.697644 -3.407924 -1.266437 16.171190 3.482996 13.446432 -14.314070 0.000000 -0.000000 0.000000 1.327228 0.688563 -7.696350 -0.692107 4.009915 13.488036 0.323130 -7.286106 -11.807712 0.000000 -0.000000 0.000000 -2.004383 0.982706 8.452573 1.862821 -5.301951 4.816407 -0.596862 -0.628562 -3.853557 0.388386 3.052151 -9.981929 2.609012 0.510612 3.279351 -26.802178 -8.037213 -0.884692 -47.473027 -8.777998 12.580433 7.521731 -19.613846 -7.270943 -2.046531 -7.425261 3.147929 27.979575 8.630208 2.006676 48.275903 2.299073 9.835905 -19.226195 21.740692 -14.603589 2.124765 6.587954 1.970095 
1.166636 0.765422 0.988899 -97.858819 0.019373 90.452781 2.552227 0.946699 -10.847359 -4.127603 1.472450 20.979475 3.616215 14.238923 -15.596680 0.000000 -0.000000 0.000000 1.598205 0.004354 -8.545115 -0.487780 3.554662 14.438545 -0.205224 -7.669086 -12.553797 0.000000 -0.000000 0.000000 -1.969332 1.494886 10.473391 1.978918 -5.212312 4.007752 -0.215796 -0.873832 -3.885441 0.610238 2.876136 -11.101824 2.584323 -0.155675 2.183304 -26.196540 -8.337890 -0.924090 -47.061998 -8.885339 12.494652 7.289962 -19.011944 -6.395104 -1.547092 -7.352226 3.264081 27.506798 8.865384 2.107226 47.551663 2.404549 8.788445 -18.769093 18.622734 -14.764556 1.566507 5.767986 2.087238 
1.170610 0.766178 0.984690 -96.580597 0.423502 90.440745 3.446100 2.187157 -13.794391 -4.305763 6.107175 25.882706 4.195112 16.288016 -16.179045 0.000000 -0.000000 0.000000 1.837268 -0.073865 -10.155599 0.090741 2.482588 17.177407 -0.774953 -8.137064 -13.777019 0.000000 -0.000000 0.000000 -1.893963 1.453845 12.786214 2.220200 -5.092610 3.161268 0.263677 -0.898898 -3.499926 1.115138 2.742262 -12.813752 2.241058 -0.845316 1.273965 -25.748415 -9.072069 -0.306078 -46.812753 -8.921292 12.046459 7.406399 -19.465572 -6.210749 -1.110767 -7.072078 2.517418 27.172692 9.846102 2.449208 46.837409 2.945664 7.997462 -18.966633 16.506402 -15.196095 0.922234 4.977453 1.489363 
